<?xml version="1.0" encoding="utf-8"?><svg version="1.1" id="Layer_1" xmlns="http://www.w3.org/2000/svg" xmlns:xlink="http://www.w3.org/1999/xlink" x="0px" y="0px" viewBox="0 0 122.88 110.78" style="enable-background:new 0 0 122.88 110.78" xml:space="preserve"><style type="text/css">.st0{fill-rule:evenodd;clip-rule:evenodd;}</style><g><path class="st0" d="M77.5,56.15l6.28-6.47c-8.73-6.61-28.1-3.12-36.46,3.02c-4.1-1.21-8.13-1.32-12.28-1.14 c-9.96,0.43-1.61,8.65,1.57,11.91c-2.67,4.31-5.1,8.78-7.42,13.32c-1.77,4.82-5.49,6.67-10.81,6.05l-5.89-1.17 c-3.12-0.62-14.18-3.81-12.27,2.64c1.92,4.18,6.62,7.83,11.59,11.43c0.43,2.85,1.13,5.77,1.94,8.72c2.33,8.42,5.93,8.27,8.39,0.47 l3.37-10.73c1.04-3.84,3.22-5.56,6.04-5.8c8.61-0.74,15.73,2.32,27.29-1.29c0.52,3.02,1.37,5.96,2.47,8.86 c1.21,2.12,2.94,2.33,5.42-0.29c2.48-4.19,4.07-8.91,4.89-14.09c8.61-8.92,14.67-21.43,13.8-28.78L77.5,56.15L77.5,56.15z M118.88,0v8.04c2.37,1.21,4,3.67,4,6.52c0,2.85-1.63,5.31-4,6.52v40.63l-0.01,0.04c-0.09,6.52-3.48,11.27-7.85,13.61 c-1.84,0.99-3.87,1.55-5.9,1.64c-2.08,0.09-4.17-0.31-6.08-1.24c-4.17-2.03-7.49-6.55-8.01-13.87l3.47-7.81l3.06,7.35 c0.33,4.63,2.12,7.36,4.35,8.45c0.92,0.45,1.93,0.64,2.93,0.6c1.05-0.05,2.11-0.34,3.09-0.87c2.45-1.32,4.36-4.06,4.42-7.89h-0.01 V21.12c-2.41-1.19-4.08-3.68-4.08-6.56c0-2.88,1.66-5.36,4.08-6.56V0H118.88L118.88,0z M70.48,50c-1.77-0.47-3.59,0.58-4.06,2.34 c-0.47,1.77,0.58,3.59,2.34,4.06c1.77,0.47,3.59-0.58,4.06-2.35C73.29,52.29,72.24,50.48,70.48,50L70.48,50z"/></g></svg>